<?xml version='1.0' encoding='iso-8859-1'?>
<!DOCTYPE svg PUBLIC '-//W3C//DTD SVG 1.1//EN' 'http://www.w3.org/Graphics/SVG/1.1/DTD/svg11.dtd'>
<!-- Uploaded to: SVG Repo, www.svgrepo.com, Generator: SVG Repo Mixer Tools -->
<svg fill="#000000" height="800px" width="800px" version="1.1" xmlns="http://www.w3.org/2000/svg" viewBox="0 0 460 460" xmlns:xlink="http://www.w3.org/1999/xlink" enable-background="new 0 0 460 460">
  <path d="M378.28,154.394c-1.86-2.748-4.962-4.394-8.28-4.394h-44.286V10c0-5.523-4.478-10-10-10H144.286  c-5.523,0-10,4.477-10,10v140H90c-3.318,0-6.42,1.646-8.281,4.394c-1.86,2.748-2.236,6.239-1.004,9.32L120,261.926V450  c0,5.523,4.477,10,10,10h200c5.522,0,10-4.477,10-10V261.927l39.285-98.213C380.517,160.633,380.141,157.142,378.28,154.394z   M154.286,140H220v40h-65.714V140z M240,140h65.714v40H240V140z M305.714,120H240V80h65.714V120z M220,120h-65.714V80H220V120z   M154.286,200H220v40h-65.714V200z M320,260v0.161c0,0.015,0,0.03,0,0.044v3.614l-180,90v-93.617c0-0.012,0-0.024,0-0.035V260H320z   M140,376.18l180-90v37.64l-180,90V376.18z M240,240v-40h65.714v40H240z M305.714,60H240V20h65.714V60z M220,20v40h-65.714V20H220z   M134.286,170v70h-1.515l-28-70H134.286z M140,440v-3.82l180-90V440H140z M327.229,240h-1.515v-70h29.516L327.229,240z"/>
</svg>