<?xml version="1.0" encoding="UTF-8"?>
<svg xmlns="http://www.w3.org/2000/svg" xmlns:xlink="http://www.w3.org/1999/xlink" version="1.1" id="Layer_1" x="0px" y="0px" viewBox="0 0 512 512" style="enable-background:new 0 0 512 512;" xml:space="preserve">
<style type="text/css">
	.st0{fill:#FFFFFF;}
	.st1{clip-path:url(#SVGID_00000037670984573077249900000014559393090982468233_);fill:#CB8A88;}
	.st2{opacity:0.5;clip-path:url(#SVGID_00000037670984573077249900000014559393090982468233_);}
	.st3{fill:#CB8A88;}
	.st4{fill:#981D25;}
	.st5{fill:#CC8A88;}
	.st6{clip-path:url(#SVGID_00000137116223510253757360000001215646785630404753_);fill:#981D25;}
	.st7{opacity:0.5;clip-path:url(#SVGID_00000137116223510253757360000001215646785630404753_);}
</style>
<g>
	<g>
		<g>
			<g>
				<g>
					<g>
						<path class="st0" d="M143.27,282.67c-3.65,2.25-6,4.67-7.06,7.27c-1.05,2.6-1.23,5.27-0.53,8c0.7,2.74,1.96,5.58,3.79,8.53        c1.82,2.95,3.72,5.93,5.69,8.95c1.96,3.02,3.69,6.04,5.16,9.06c1.48,3.02,2.21,6,2.21,8.95c0,4.35-1.2,8.42-3.58,12.22        c-2.39,3.79-5.76,7.02-10.11,9.69c-4.35,2.67-9.44,4.78-15.27,6.32c-5.83,1.55-12.25,2.32-19.27,2.32        c-13.2,0-24.43-2.21-33.7-6.63c-9.27-4.42-16.78-10.32-22.53-17.69c-5.76-7.37-9.93-15.8-12.53-25.27        c-2.6-9.48-3.9-19.27-3.9-29.38c0-10.11,1.58-19.9,4.74-29.38c3.16-9.48,7.76-17.9,13.79-25.27        c6.04-7.37,13.48-13.27,22.32-17.69c8.85-4.42,18.95-6.63,30.33-6.63c7.86,0,14.78,0.88,20.75,2.63        c5.97,1.76,10.95,4.04,14.95,6.84c4,2.81,6.98,6.04,8.95,9.69c1.96,3.65,2.95,7.3,2.95,10.95c0,4.63-1.41,8.25-4.21,10.85        c-2.81,2.6-6.21,4.71-10.22,6.32c-4,1.62-8.18,2.98-12.53,4.11c-4.35,1.13-8.14,2.53-11.37,4.21        c-3.23,1.68-5.48,3.9-6.74,6.63c-1.26,2.74-0.7,6.57,1.68,11.48l-1.68,0.63c-3.23-5.19-5.23-9.69-6-13.48        c-0.77-3.79-0.74-7.16,0.11-10.11c0.84-2.95,2.21-5.58,4.11-7.9c1.9-2.32,3.82-4.63,5.79-6.95c1.96-2.32,3.69-4.77,5.16-7.37        c1.47-2.6,2.21-5.58,2.21-8.95c0-5.33-1.62-9.58-4.84-12.74c-3.23-3.16-7.3-4.74-12.21-4.74c-4.92,0-9.48,2.04-13.69,6.11        c-4.21,4.07-7.83,9.62-10.85,16.64c-3.02,7.02-5.41,15.2-7.16,24.54c-1.76,9.34-2.63,19.2-2.63,29.59        c0,10.53,0.77,20.43,2.32,29.7c1.54,9.27,3.9,17.41,7.06,24.43c3.16,7.02,7.27,12.57,12.32,16.64        c5.05,4.07,11.02,6.11,17.9,6.11c4.21,0,7.79-0.45,10.74-1.37c2.95-0.91,5.37-2.14,7.27-3.69c1.89-1.54,3.26-3.3,4.11-5.27        c0.84-1.96,1.26-4.07,1.26-6.32c0-3.51-0.74-6.49-2.21-8.95c-1.47-2.45-3.05-4.88-4.74-7.27c-1.68-2.39-3.26-4.98-4.74-7.79        c-1.47-2.81-2.21-6.18-2.21-10.11c0-3.93,1.48-7.65,4.42-11.16c2.95-3.51,6.18-6.67,9.69-9.48c4.07-3.09,8.77-6.04,14.11-8.85        L143.27,282.67z"></path>
						<path class="st0" d="M282.07,172.56c3.71,0,6.74,1.07,9.09,3.21c2.35,2.14,4.31,4.49,5.88,7.06        c1.57,3.14,2.85,6.63,3.85,10.48l-1.71,1.07c-0.72-1.14-1.57-2.14-2.57-3c-1-0.71-2.25-1.39-3.75-2.03        c-1.5-0.64-3.46-0.96-5.88-0.96c-4.71,0-8.17,1.36-10.37,4.06c-2.21,2.71-3.6,5.99-4.17,9.84c-0.57,4.14-0.25,8.13,0.96,11.98        c1.21,3.85,3.1,7.35,5.67,10.48c6.13,7.42,9.2,15.69,9.2,24.82c0,5.71-1.28,11.3-3.85,16.79        c-2.57,5.49-6.42,10.38-11.55,14.65c-5.13,4.28-11.55,7.74-19.25,10.38c-7.7,2.64-16.69,3.96-26.95,3.96        c-8.85,0-17.4-1.57-25.67-4.71c-2.99,0.86-5.28,2.78-6.85,5.78c-1.57,2.99-2.28,6.17-2.14,9.52c0.14,3.35,1.21,6.35,3.21,8.99        c2,2.64,5.06,3.96,9.2,3.96c5.42,0,10.19-0.96,14.33-2.89c4.13-1.93,8.16-4.06,12.09-6.42c3.92-2.35,7.99-4.49,12.19-6.42        c4.21-1.93,9.02-2.89,14.44-2.89c3.99,0,7.74,0.61,11.23,1.82c3.49,1.21,6.52,2.96,9.09,5.24c2.57,2.28,4.6,5.13,6.1,8.56        c1.5,3.42,2.25,7.34,2.25,11.77c0,4.14-0.79,8.24-2.35,12.3c-1.57,4.07-3.96,7.7-7.17,10.91c-3.21,3.21-7.31,5.78-12.3,7.7        c-4.99,1.93-10.91,2.89-17.75,2.89c-6.71,0-12.3-0.47-16.79-1.39c-4.49-0.93-8.7-1.93-12.62-3        c-3.92-1.07-7.99-2.07-12.19-2.99c-4.21-0.93-9.45-1.39-15.72-1.39c-6.56,0-11.84,1-15.83,2.99c-3.99,2-6.81,4.49-8.45,7.49        c-1.64,3-2.14,6.17-1.5,9.52c0.64,3.35,1.54,8.02,4.25,10.59l0,0c-4.28-4.42-9.1-9.66-11.31-15.72        c-2.21-6.06-3.07-11.87-2.57-17.44c0.5-5.56,2.6-10.27,6.31-14.12c3.71-3.85,9.27-5.78,16.69-5.78c3.56,0,6.77,0.61,9.63,1.82        c2.85,1.21,5.59,2.71,8.24,4.49c2.64,1.78,5.2,3.74,7.7,5.88c2.49,2.14,5.2,4.1,8.13,5.88c2.92,1.78,6.1,3.28,9.52,4.49        c3.42,1.21,7.35,1.82,11.77,1.82c4.42,0,8.06-0.96,10.91-2.89c2.85-1.93,4.99-4.35,6.42-7.27c1.42-2.92,2.17-6.1,2.25-9.52        c0.07-3.42-0.43-6.6-1.5-9.52c-1.07-2.92-2.67-5.35-4.81-7.27c-2.14-1.93-4.78-2.89-7.92-2.89c-4.71,0-8.74,0.57-12.09,1.71        c-3.35,1.14-6.67,2.39-9.95,3.74c-3.28,1.35-6.78,2.6-10.48,3.74c-3.71,1.14-8.2,1.71-13.48,1.71        c-6.99,0-12.3-1.39-15.94-4.17c-3.64-2.78-5.46-6.17-5.46-10.16c0-3.42,1.14-6.42,3.42-8.98c2.28-2.57,4.95-4.78,8.02-6.63        c3.07-1.85,6.24-3.32,9.52-4.39c3.28-1.07,5.92-1.82,7.92-2.25c-9.56-4.14-17.37-9.8-23.43-17.01        c-6.06-7.2-9.09-14.87-9.09-23c0-2.57,0.46-4.81,1.39-6.74c0.93-1.93,2.14-3.46,3.64-4.6c1.5-1.14,3.14-2,4.92-2.57        c1.78-0.57,3.6-0.86,5.46-0.86c3.42,0,6.56,0.61,9.41,1.82c2.85,1.21,5.67,2.57,8.45,4.06c2.78,1.5,5.67,2.89,8.66,4.17        c2.99,1.28,6.42,1.93,10.27,1.93c2.42,0,4.24-0.28,5.46-0.86c1.21-0.57,1.92-1.28,2.14-2.14c0.21-0.86-0.07-1.71-0.86-2.57        c-0.79-0.86-2.03-1.57-3.75-2.14c-2.43-0.86-5.67-1.82-9.73-2.89c-4.07-1.07-8.02-2.35-11.87-3.85        c-3.85-1.5-7.17-3.24-9.95-5.24c-2.78-2-4.17-4.35-4.17-7.06c0-2.14,1.07-4.1,3.21-5.88c2.14-1.78,5.13-3.39,8.98-4.81        c3.85-1.42,8.38-2.53,13.58-3.32c5.21-0.78,10.88-1.18,17.01-1.18c9.41,0,17.65,1.14,24.71,3.42        c7.06,2.28,13.08,5.28,18.08,8.99c-2.14-4.56-3.74-9.45-4.81-14.65c-1.07-5.2-1.28-10.06-0.64-14.55        c0.64-4.49,2.25-8.2,4.81-11.12C273.09,174.02,276.94,172.56,282.07,172.56z M254.9,249.57c0-5.7-0.43-11.16-1.28-16.37        c-0.86-5.2-2.28-9.77-4.28-13.69c-2-3.92-4.67-7.02-8.02-9.31c-3.35-2.28-7.52-3.42-12.51-3.42c-5.85,0-10.73,1.43-14.66,4.28        c-3.92,2.85-5.88,6.42-5.88,10.7c0,3.71,1.64,6.92,4.92,9.63c3.28,2.71,7.63,4.92,13.05,6.63c5.13,1.57,8.99,3.42,11.55,5.56        c2.57,2.14,3.53,3.96,2.89,5.46c-0.64,1.5-2.96,2.39-6.95,2.67c-4,0.29-9.91-0.5-17.76-2.35c-2.28-0.57-4.46-1.07-6.52-1.5        c-2.07-0.43-3.82-0.43-5.24,0c-1.43,0.43-2.57,1.53-3.42,3.32c-0.86,1.79-1.28,4.67-1.28,8.66c0,3.42,0.5,7.1,1.5,11.02        c1,3.92,2.6,7.56,4.81,10.91c2.21,3.35,5.03,6.13,8.45,8.34c3.42,2.21,7.56,3.32,12.41,3.32c5.42,0,9.95-1.18,13.58-3.53        c3.64-2.35,6.52-5.53,8.66-9.52c2.14-3.99,3.67-8.63,4.6-13.91C254.44,261.2,254.9,255.56,254.9,249.57z"></path>
						<path class="st0" d="M461.21,304.19c-0.08,0.35-0.67,5.32-0.75,5.71c-0.55,2.2-1.35,4.92-2.43,8.22        c-1.25,3.91-2.99,7.64-5.19,11.28c-2.18,3.64-4.81,6.79-7.84,9.5c-3.04,2.69-6.59,4.04-10.63,4.04        c-4.74,0-8.73-2.15-12.03-6.44c-3.29-4.31-4.96-10.6-4.96-18.88c0-6.26,0.68-11.56,2.05-15.95c1.35-4.39,2.83-8.53,4.43-12.41        c1.6-3.88,3.06-7.8,4.43-11.78c1.35-3.96,2.01-8.73,2.01-14.29c0-3.73-1.13-6.85-3.41-9.38c-2.28-2.53-5.16-4.43-8.62-5.71        c-3.44-1.26-7.2-1.85-11.25-1.78c-4.08,0.12-7.84,1-11.28,2.68c-3.46,1.7-6.34,4.23-8.62,7.6c-2.28,3.38-3.41,7.67-3.41,12.91        c0,5.24,0.72,9.87,2.15,13.92c1.45,4.04,3.21,7.8,5.32,11.26c2.11,3.48,4.43,6.69,6.95,9.63c2.53,2.96,4.86,5.99,6.97,9.12        c2.11,3.13,3.89,6.37,5.32,9.75c1.43,3.38,2.15,7.17,2.15,11.4c0,10.91-4.7,20.03-14.69,24.93c-6.11,3-13,4.04-19.79,4.36        c-13.26,0.62-31.78-1.68-38.96-14.69c-2.45-4.44-3.25-9.59-3.25-14.6c0-4.23,0.72-8.02,2.15-11.4        c1.43-3.38,3.21-6.62,5.31-9.75c2.13-3.13,4.46-6.16,6.99-9.12c2.51-2.94,4.84-6.16,6.95-9.63c2.11-3.46,3.88-7.22,5.32-11.26        c1.41-4.06,2.15-8.68,2.15-13.92c0-5.24-1.13-9.53-3.41-12.91c-2.3-3.38-5.16-5.91-8.62-7.6c-3.46-1.68-7.22-2.56-11.28-2.68        c-4.04-0.07-7.8,0.52-11.26,1.78c-3.44,1.28-6.32,3.18-8.6,5.71c-2.28,2.53-3.41,5.66-3.41,9.38c0,5.56,0.67,10.33,2.01,14.29        c1.35,3.98,2.83,7.9,4.43,11.78c1.6,3.88,3.08,8.02,4.43,12.41c1.36,4.39,2.05,9.7,2.05,15.95c0,8.28-1.66,14.57-4.96,18.88        c-3.29,4.29-7.29,6.44-12.03,6.44c-4.04,0-7.6-1.35-10.63-4.04c-3.03-2.71-5.66-5.86-7.84-9.5        c-2.21-3.64-3.94-7.37-5.19-11.28c-1.08-3.29-1.88-6.02-2.43-8.22c-0.08-0.38-0.67-5.36-0.75-5.71        c0.28,1.01,2.45,3.73,2.94,4.59c1.23,2.2,3.14,3.96,5.66,5.29c3.54,1.86,7.3,2.71,11.28,2.53c3.96-0.17,7.5-1.43,10.63-3.79        c3.13-2.38,4.69-5.99,4.69-10.9c0-6.42-1.15-12.08-3.43-16.97c-2.26-4.89-4.81-9.67-7.59-14.31        c-2.79-4.62-5.31-9.47-7.6-14.42c-2.28-4.97-3.41-10.68-3.41-17.1c0-4.71,0.7-9.17,2.15-13.31c1.43-4.13,3.51-7.72,6.21-10.75        c2.71-3.03,6.07-5.44,10.11-7.22c4.08-1.78,8.7-2.66,13.94-2.66c4.91,0,9.75,0.93,14.57,2.78c4.81,1.86,9.12,4.69,12.91,8.5        c3.79,3.79,6.84,8.65,9.12,14.54c2.28,5.92,3.41,12.93,3.41,21.03c0,7.95-0.53,14.57-1.63,19.9        c-1.11,5.31-2.28,10.28-3.56,14.92c-1.26,4.66-2.45,9.47-3.54,14.44c-1.1,4.99-1.65,11.2-1.65,18.62        c0,7.77,1.18,14.01,3.56,18.73c0.02,0.04,0.04,0.09,0.07,0.13c3.32,6.59,12.95,6.59,16.27,0c0.02-0.04,0.04-0.09,0.07-0.13        c2.36-4.72,3.56-10.96,3.56-18.73c0-7.42-0.55-13.62-1.66-18.62c-1.08-4.97-2.26-9.78-3.53-14.44        c-1.28-4.64-2.45-9.62-3.56-14.92c-1.1-5.32-1.63-11.94-1.63-19.9c0-8.1,1.13-15.11,3.41-21.03        c2.28-5.89,5.31-10.75,9.12-14.54c3.79-3.81,8.1-6.64,12.91-8.5c4.81-1.85,9.67-2.78,14.57-2.78c5.24,0,9.87,0.88,13.92,2.66        c4.04,1.78,7.42,4.19,10.13,7.22c2.7,3.03,4.77,6.62,6.21,10.75c1.43,4.14,2.15,8.6,2.15,13.31c0,6.42-1.13,12.13-3.41,17.1        c-2.3,4.96-4.82,9.8-7.6,14.42c-2.78,4.64-5.32,9.42-7.59,14.31c-2.28,4.89-3.43,10.55-3.43,16.97c0,4.91,1.56,8.52,4.67,10.9        c3.14,2.36,6.67,3.63,10.63,3.79c3.99,0.18,7.75-0.67,11.28-2.53c2.53-1.33,4.44-3.09,5.67-5.29        C458.77,307.92,460.93,305.21,461.21,304.19z"></path>
					</g>
				</g>
			</g>
		</g>
	</g>
	<g>
		<g>
			<path class="st0" d="M480.35,135.81c0,3.7-1.8,6.98-4.58,9c2.78,2.04,4.58,5.31,4.58,9.01c0,5.35-3.74,9.8-8.74,10.9     c0.95,1.65,1.51,3.54,1.51,5.58c0,6.17-5,11.17-11.17,11.17c-0.13,0-0.24-0.01-0.36-0.01c0.24,0.88,0.36,1.8,0.36,2.75     c0,6.17-5,11.17-11.17,11.17c-1.89,0-3.66-0.47-5.21-1.3c-1.44,4.51-5.66,7.78-10.64,7.78c-4.62,0-8.59-2.82-10.29-6.83     l-0.16-17.68c0,0,23.42-3.24,24.15-32.79h-32.08h-32.06c0.71,29.55,24.13,32.79,24.13,32.79l-0.15,17.68     c-1.69,4.01-5.67,6.83-10.29,6.83c-4.99,0-9.19-3.27-10.64-7.78c-1.55,0.82-3.32,1.3-5.21,1.3c-6.17,0-11.17-5-11.17-11.17     c0-0.95,0.14-1.87,0.36-2.75c-0.13,0-0.24,0.01-0.36,0.01c-6.16,0-11.17-5-11.17-11.17c0-2.04,0.56-3.94,1.51-5.58     c-5-1.1-8.74-5.56-8.74-10.9c0-3.7,1.81-6.97,4.58-9.01c-2.77-2.02-4.58-5.31-4.58-9c0-4.41,2.55-8.21,6.27-10.03     c-1.14-1.74-1.8-3.83-1.8-6.08c0-6.17,5-11.17,11.17-11.17c0.49,0,0.97,0.04,1.44,0.1c0.6-5.6,5.35-9.97,11.1-9.97     c2.4,0,4.62,0.75,6.44,2.04c1.23-4.83,5.6-8.41,10.81-8.41c2.61,0,5,0.9,6.9,2.39c2.05-2.43,5.11-3.98,8.55-3.98     c1.02,0,2,0.14,2.93,0.39c0.94-0.25,1.93-0.39,2.95-0.39c3.42,0,6.49,1.55,8.53,3.98c1.9-1.49,4.3-2.39,6.9-2.39     c5.22,0,9.59,3.58,10.82,8.41c1.81-1.29,4.02-2.04,6.42-2.04c5.77,0,10.52,4.37,11.1,9.97c0.48-0.05,0.96-0.1,1.45-0.1     c6.17,0,11.17,5,11.17,11.17c0,2.25-0.67,4.33-1.8,6.08C477.8,127.59,480.35,131.39,480.35,135.81z"></path>
		</g>
		<g>
			<path class="st0" d="M416.65,171.63c-3.86,0-7.28-1.64-9.12-3.06c-0.92-0.7-1.09-2.02-0.39-2.93c0.71-0.92,2.02-1.09,2.93-0.39     c0.29,0.22,6.56,4.82,12.35,0.05c0.89-0.74,2.21-0.61,2.95,0.28c0.74,0.89,0.61,2.22-0.28,2.95     C422.32,170.82,419.37,171.63,416.65,171.63z"></path>
		</g>
	</g>
	<g>
		<path class="st0" d="M53.15,420.97l-0.03-15.52l-7.69,12.84h-1.94l-7.69-12.64v15.31h-4.15v-23.41h3.58l9.3,15.52l9.13-15.52h3.58    l0.03,23.41H53.15z"></path>
		<path class="st0" d="M82.7,412.71v8.26h-4.35v-8.19l-9.2-15.22h4.65l6.85,11.4l6.92-11.4h4.28L82.7,412.71z"></path>
		<path class="st0" d="M120.31,409.26c0-6.99,5.35-12.04,12.54-12.04c3.81,0,7.09,1.37,9.26,3.91l-2.81,2.64    c-1.71-1.84-3.81-2.75-6.25-2.75c-4.85,0-8.36,3.41-8.36,8.23c0,4.82,3.51,8.23,8.36,8.23c2.44,0,4.55-0.91,6.25-2.78l2.81,2.68    c-2.17,2.54-5.45,3.91-9.3,3.91C125.66,421.3,120.31,416.25,120.31,409.26z"></path>
		<path class="st0" d="M154.94,410.77v-13.21h4.35v13.04c0,4.82,2.17,6.89,5.95,6.89c3.78,0,5.92-2.08,5.92-6.89v-13.04h4.28v13.21    c0,6.82-3.85,10.53-10.23,10.53C158.79,421.3,154.94,417.59,154.94,410.77z"></path>
		<path class="st0" d="M205.86,420.97l-4.78-6.85c-0.3,0.03-0.6,0.03-0.9,0.03h-5.28v6.82h-4.35v-23.41h9.63    c6.15,0,9.97,3.14,9.97,8.32c0,3.55-1.81,6.15-4.98,7.39l5.38,7.69H205.86z M199.98,401.24h-5.08v9.33h5.08    c3.81,0,5.78-1.74,5.78-4.68C205.76,402.94,203.79,401.24,199.98,401.24z"></path>
		<path class="st0" d="M224.01,397.56h4.35v19.73h12.24v3.68h-16.59V397.56z"></path>
		<path class="st0" d="M260.72,412.71v8.26h-4.35v-8.19l-9.2-15.22h4.65l6.85,11.4l6.92-11.4h4.28L260.72,412.71z"></path>
		<path class="st0" d="M300,397.56h10.23c7.59,0,12.78,4.68,12.78,11.7s-5.18,11.7-12.78,11.7H300V397.56z M310.03,417.29    c5.22,0,8.59-3.18,8.59-8.02s-3.38-8.02-8.59-8.02h-5.69v16.05H310.03z"></path>
		<path class="st0" d="M351.96,420.97l-4.78-6.85c-0.3,0.03-0.6,0.03-0.9,0.03h-5.28v6.82h-4.35v-23.41h9.63    c6.15,0,9.97,3.14,9.97,8.32c0,3.55-1.81,6.15-4.98,7.39l5.38,7.69H351.96z M346.07,401.24h-5.08v9.33h5.08    c3.81,0,5.78-1.74,5.78-4.68C351.85,402.94,349.88,401.24,346.07,401.24z"></path>
		<path class="st0" d="M387.66,417.32v3.65h-17.55v-23.41h17.09v3.64h-12.74v6.09h11.3v3.58h-11.3v6.45H387.66z"></path>
		<path class="st0" d="M416.71,415.55h-11.7l-2.31,5.42h-4.48l10.53-23.41h4.28l10.57,23.41h-4.55L416.71,415.55z M415.28,412.14    l-4.41-10.23l-4.38,10.23H415.28z"></path>
		<path class="st0" d="M457.1,420.97l-0.03-15.52l-7.69,12.84h-1.94l-7.69-12.64v15.31h-4.15v-23.41h3.58l9.3,15.52l9.13-15.52h3.58    l0.03,23.41H457.1z"></path>
	</g>
</g>
</svg>
